<svg width="1024" height="1024" viewBox="0 0 1024 1024" fill="none" xmlns="http://www.w3.org/2000/svg">
  <defs>
    <linearGradient id="bg" x1="120" y1="96" x2="920" y2="928" gradientUnits="userSpaceOnUse">
      <stop stop-color="#2B6F14"/>
      <stop offset="1" stop-color="#49B41C"/>
    </linearGradient>
    <filter id="shadow" x="110" y="168" width="804" height="696" filterUnits="userSpaceOnUse" color-interpolation-filters="sRGB">
      <feDropShadow dx="0" dy="24" stdDeviation="22" flood-color="#173E0B" flood-opacity="0.3"/>
    </filter>
  </defs>

  <rect width="1024" height="1024" rx="224" fill="url(#bg)"/>
  <circle cx="196" cy="180" r="116" fill="#6BEA26" fill-opacity="0.08"/>
  <circle cx="842" cy="822" r="152" fill="#C8F8AF" fill-opacity="0.08"/>

  <g filter="url(#shadow)">
    <path d="M188 296C188 245.19 229.19 204 280 204H744C794.81 204 836 245.19 836 296V580C836 630.81 794.81 672 744 672H390L194 752V660C190 648 188 634.5 188 620V296Z" fill="#DCEAF6" stroke="#111111" stroke-width="18" stroke-linejoin="round"/>
    <rect x="280" y="320" width="296" height="48" fill="#111111"/>
    <rect x="280" y="404" width="412" height="48" fill="#111111"/>
    <rect x="280" y="488" width="184" height="48" fill="#111111"/>
  </g>
</svg>
